<mxfile host="app.diagrams.net" modified="2024-04-24T12:55:03.291Z" agent="Mozilla/5.0 (Windows NT 10.0; Win64; x64; rv:125.0) Gecko/20100101 Firefox/125.0" etag="ZKEbaVqd3AYAW-8AMhtE" version="24.3.0" type="device">
  <diagram name="Page-1" id="o4I8aAuYKcVSfHjXD2rl">
    <mxGraphModel dx="1050" dy="538" grid="1" gridSize="10" guides="1" tooltips="1" connect="1" arrows="1" fold="1" page="1" pageScale="1" pageWidth="1600" pageHeight="900" math="0" shadow="0">
      <root>
        <mxCell id="0" />
        <mxCell id="1" parent="0" />
      </root>
    </mxGraphModel>
  </diagram>
</mxfile>
